<svg width="320" height="320" viewBox="0 0 320 320" fill="none" xmlns="http://www.w3.org/2000/svg">
<rect width="320" height="320" fill="#F8F1EA"/>
<circle cx="62" cy="70" r="24" fill="#D5E0C8"/>
<circle cx="250" cy="86" r="26" fill="#EBD2C2"/>
<rect x="108" y="62" width="104" height="196" rx="34" fill="url(#paint0_linear_belladonna)"/>
<rect x="120" y="96" width="84" height="82" rx="14" fill="#FEFAF4"/>
<rect x="134" y="210" width="52" height="30" rx="10" fill="#D9E4CF"/>
<path d="M60 236C86 218 124 216 150 242C122 256 92 258 60 236Z" fill="#C1D4B9"/>
<path d="M246 250C220 224 186 220 166 236C196 258 220 264 246 250Z" fill="#D8B6A3"/>
<path d="M102 264C124 248 144 248 166 264C142 276 122 276 102 264Z" fill="#ADC4A7"/>
<defs>
<linearGradient id="paint0_linear_belladonna" x1="108" y1="62" x2="212" y2="258" gradientUnits="userSpaceOnUse">
<stop stop-color="#6A8A6B"/>
<stop offset="1" stop-color="#9CB394"/>
</linearGradient>
</defs>
</svg>
